<?xml version="1.0" encoding="UTF-8"?>
<!DOCTYPE svg PUBLIC "-//W3C//DTD SVG 1.1//EN" "http://www.w3.org/Graphics/SVG/1.1/DTD/svg11.dtd">
<!-- Creator: CorelDRAW 2021.5 -->
<svg xmlns="http://www.w3.org/2000/svg" xml:space="preserve" width="91.3267mm" height="129.162mm" version="1.1" style="shape-rendering:geometricPrecision; text-rendering:geometricPrecision; image-rendering:optimizeQuality; fill-rule:evenodd; clip-rule:evenodd"
viewBox="0 0 9132.67 12916.2"
 xmlns:xlink="http://www.w3.org/1999/xlink"
 xmlns:xodm="http://www.corel.com/coreldraw/odm/2003">
 <defs>
  <style type="text/css">
   <![CDATA[
    .fil2 {fill:#FEFEFE}
    .fil0 {fill:#E6E7E8}
    .fil4 {fill:#E6E7E8}
    .fil3 {fill:#606062}
    .fil8 {fill:#57585A}
    .fil5 {fill:#F059D9}
    .fil6 {fill:#F157D9}
    .fil1 {fill:#FF7AD8}
    .fil7 {fill:#FFCF00}
    .fil9 {fill:#6EBB40;fill-rule:nonzero}
   ]]>
  </style>
 </defs>
 <g id="Layer_x0020_1">
  <metadata id="CorelCorpID_0Corel-Layer"/>
  <path class="fil0" d="M5953.75 5218.56c16.54,-2.25 32.28,-3.54 62.15,2.25 29.86,5.78 73.86,18.62 108.39,38.21 34.52,19.59 59.57,45.92 73.22,68.41 13.65,22.48 15.9,41.11 13.33,64.71 -2.57,23.6 -9.96,52.19 -33.88,91.37 -23.93,39.18 -64.39,88.96 -101.48,123.8 -37.1,34.84 -70.82,54.76 -99.08,64.39 -28.26,9.63 -51.07,8.99 -80.93,-7.71 -29.87,-16.7 -66.8,-49.46 -88.16,-79.81 -21.36,-30.35 -27.14,-58.29 -20.24,-91.2 6.91,-32.92 26.49,-70.82 48.01,-104.38 21.52,-33.56 44.96,-62.78 56.69,-77.4 11.72,-14.61 11.72,-14.61 11.72,-14.61 0,0 0,0 0,0 0,0 0,0 0,0 0,0 0,0 0,0 0,0 0,0 0,-11.56 0,-11.56 0,-34.69 -0.16,-46.25 -0.16,-11.56 -0.48,-11.56 -0.64,-11.56 -0.16,0 -0.16,0 -0.16,0 0,0 0,0 0,0 0,0 0,0 8.67,-1.6 8.67,-1.6 26.02,-4.82 42.55,-7.06z"/>
  <path class="fil0" d="M5971.61 5717.71c26.42,2.95 58.93,9.61 91.81,25.12 32.88,15.52 66.13,39.9 87.19,63.91 21.06,24.01 29.92,47.66 35.65,71.86 5.73,24.2 8.31,48.95 0.74,75.55 -7.58,26.6 -25.31,55.05 -56.71,88.85 -31.4,33.8 -76.48,72.97 -116.38,100.49 -39.9,27.52 -74.63,43.41 -102.34,51.36 -27.71,7.94 -48.4,7.94 -73.52,-1.48 -25.12,-9.42 -54.68,-28.26 -73.7,-57.64 -19.03,-29.37 -27.52,-69.27 -24.57,-106.59 2.95,-37.31 17.36,-72.04 41.01,-108.99 23.64,-36.94 56.53,-76.11 78.51,-99.75 21.98,-23.64 33.06,-31.77 38.61,-35.83 5.54,-4.07 5.54,-4.07 5.54,-4.07 0,0 0,0 0,0 0,0 0,0 0,-10.71 0,-10.72 0,-32.15 0.19,-42.86 0.18,-10.72 0.55,-10.72 0.74,-10.72 0.18,0 0.18,0 0.18,0 0,0 0,0 0,0 0,0 0,0 10.16,-0.37 10.16,-0.37 30.48,-1.11 56.9,1.85z"/>
  <path class="fil1" d="M4677.57 7255.43c-68.48,-1.65 -171.5,-6.09 -231.49,-10 -59.99,-3.91 -76.96,-7.31 -94.49,-14.09 -17.53,-6.78 -35.63,-16.96 -52.03,-34.5 -16.4,-17.53 -31.1,-42.41 -37.88,-70.69 -6.79,-28.28 -5.66,-59.94 -9,-478.46 -3.34,-418.52 -11.16,-1223.88 -15.63,-1626.56 -4.48,-402.69 -5.61,-402.69 -6.17,-402.69 -0.57,0 -0.57,0 -0.57,0 0,0 0,0 -8.48,-14.7 -8.48,-14.7 -25.45,-44.11 -49.76,-66.16 -24.32,-22.06 -55.99,-36.76 -83.69,-42.41 -27.71,-5.66 -51.46,-2.27 -73.52,33.36 -22.05,35.63 -42.41,103.49 -78.04,253.35 -35.63,149.86 -86.52,381.71 -135.15,576.25 -48.63,194.53 -95,351.74 -123.28,495.95 -28.28,144.2 -38.45,275.4 -42.41,386.24 -3.96,110.84 -1.7,201.32 9.05,269.74 10.74,68.43 29.97,114.8 39.59,137.98 9.61,23.19 9.61,23.19 9.61,23.19 0,0 0,0 0,0 0,0 0,0 0,0 0,0 0,0 -157.21,363.05 -157.21,363.05 -471.63,1089.16 -628.84,1452.21 -157.21,363.05 -157.21,363.05 -157.21,363.05 0,0 0,0 0,0 0,0 0,0 57.12,35.63 57.11,35.63 171.35,106.88 286.14,162.3 114.8,55.42 230.16,95.01 390.76,128.94 160.6,33.93 366.45,62.2 469.37,76.34 102.92,14.14 102.92,14.14 102.92,14.14 0,0 0,0 0,0 0,0 0,0 88.79,-313.29 88.78,-313.29 266.35,-939.86 355.13,-1253.15 88.78,-313.29 88.78,-313.29 88.78,-313.29 0,0 0,0 0,0 0,0 0,0 22.62,-10.18 22.62,-10.18 67.86,-30.54 105.18,-52.59 37.32,-22.05 66.73,-45.81 81.43,-57.68 14.7,-11.87 14.7,-11.87 14.7,-11.87 0,0 0,0 -16.97,0.57 -16.97,0.57 -50.9,1.7 -119.37,0.04z"/>
  <rect class="fil2" x="4293.23" y="3770.07" width="1550.47" height="3419.27" rx="105.16" ry="95.92"/>
  <path class="fil3" d="M4403.23 3709.17l1330.47 0c93.37,0 169.76,76.39 169.76,169.76l0 3213.66c0,93.37 -76.39,169.77 -169.76,169.76l-1330.47 -0c-93.37,0 -169.76,-76.39 -169.76,-169.76l0 -3213.66c0,-93.37 76.39,-169.76 169.76,-169.76zm36.2 60.9l1258.07 0c80.41,0 146.2,65.79 146.2,146.2l0 106.78 0 2797.57 0 263.57c0,57.84 -47.32,105.15 -105.15,105.15l-1340.17 0c-57.84,0 -105.15,-47.32 -105.15,-105.15l0 -263.57 0 -2797.57 0 -106.78c0,-80.41 65.79,-146.2 146.2,-146.2z"/>
  <path class="fil4" d="M5950.93 4764.17c27.45,-17.44 73.3,-46.5 118.83,-67.16 45.53,-20.67 90.74,-32.94 133.04,-31.65 42.3,1.29 81.7,16.14 105.6,41.33 23.89,25.19 32.29,60.71 26.48,98.49 -5.81,37.78 -25.83,77.82 -66.84,121.42 -41.01,43.59 -103.01,90.74 -167.27,134.98 -64.26,44.24 -130.78,85.57 -164.04,106.24 -33.26,20.67 -33.26,20.67 -33.26,20.67 0,0 0,0 0,0 0,0 0,0 0,0 0,0 0,0 0,0 0,0 0,0 0,0 0,0 0,0 0,-65.87 0,-65.88 0,-197.62 0.33,-263.49 0.32,-65.88 0.97,-65.88 1.29,-65.88 0.32,0 0.32,0 0.32,0 0,0 0,0 4.52,-2.91 4.52,-2.91 13.56,-8.72 41.01,-26.16z"/>
  <path class="fil1" d="M5950.93 4641.79c27.45,-17.44 73.3,-46.5 118.83,-67.16 45.53,-20.67 90.74,-32.94 133.04,-31.65 42.3,1.29 81.7,16.14 105.6,41.33 23.89,25.19 32.29,60.71 26.48,98.49 -5.81,37.78 -25.83,77.82 -66.84,121.42 -41.01,43.59 -103.01,90.74 -167.27,134.98 -64.26,44.24 -130.78,85.57 -164.04,106.24 -33.26,20.67 -33.26,20.67 -33.26,20.67 0,0 0,0 0,0 0,0 0,0 0,0 0,0 0,0 0,0 0,0 0,0 0,0 0,0 0,0 0,-65.87 0,-65.88 0,-197.62 0.33,-263.49 0.32,-65.88 0.97,-65.88 1.29,-65.88 0.32,0 0.32,0 0.32,0 0,0 0,0 4.52,-2.91 4.52,-2.91 13.56,-8.72 41.01,-26.16z"/>
  <path class="fil1" d="M5953.75 5096.21c16.54,-2.25 32.28,-3.54 62.15,2.25 29.86,5.78 73.86,18.62 108.39,38.21 34.52,19.59 59.57,45.92 73.22,68.41 13.65,22.48 15.9,41.11 13.33,64.71 -2.57,23.6 -9.96,52.19 -33.88,91.37 -23.93,39.18 -64.39,88.96 -101.48,123.8 -37.1,34.84 -70.82,54.76 -99.08,64.39 -28.26,9.63 -51.07,8.99 -80.93,-7.71 -29.87,-16.7 -66.8,-49.46 -88.16,-79.81 -21.36,-30.35 -27.14,-58.29 -20.24,-91.2 6.91,-32.92 26.49,-70.82 48.01,-104.38 21.52,-33.56 44.96,-62.78 56.69,-77.4 11.72,-14.61 11.72,-14.61 11.72,-14.61 0,0 0,0 0,0 0,0 0,0 0,0 0,0 0,0 0,0 0,0 0,0 0,-11.56 0,-11.56 0,-34.69 -0.16,-46.25 -0.16,-11.56 -0.48,-11.56 -0.64,-11.56 -0.16,0 -0.16,0 -0.16,0 0,0 0,0 0,0 0,0 0,0 8.67,-1.6 8.67,-1.6 26.02,-4.82 42.55,-7.06z"/>
  <path class="fil5" d="M5972.09 5259.11c-21.09,13.69 -54.6,39.94 -73.87,62.28 -19.27,22.34 -24.3,40.78 -24.58,58.37 -0.28,17.6 4.19,34.35 15.5,52.51 11.31,18.15 29.46,37.7 44.13,48.73 14.66,11.03 25.83,13.55 40.08,8.8 14.24,-4.75 31.56,-16.76 50.83,-36.3 19.27,-19.55 40.49,-46.65 52.78,-70.24 12.29,-23.6 15.64,-43.71 13.41,-62.14 -2.24,-18.43 -10.06,-35.2 -24.3,-47.9 -14.24,-12.71 -34.91,-21.37 -49.57,-25.14 -14.66,-3.77 -23.32,-2.65 -44.4,11.03z"/>
  <path class="fil1" d="M5971.61 5607.07c26.42,2.95 58.93,9.61 91.81,25.12 32.88,15.52 66.13,39.9 87.19,63.91 21.06,24.01 29.92,47.66 35.65,71.86 5.73,24.2 8.31,48.95 0.74,75.55 -7.58,26.6 -25.31,55.05 -56.71,88.85 -31.4,33.8 -76.48,72.97 -116.38,100.49 -39.9,27.52 -74.63,43.41 -102.34,51.36 -27.71,7.94 -48.4,7.94 -73.52,-1.48 -25.12,-9.42 -54.68,-28.26 -73.7,-57.64 -19.03,-29.37 -27.52,-69.27 -24.57,-106.59 2.95,-37.31 17.36,-72.04 41.01,-108.99 23.64,-36.94 56.53,-76.11 78.51,-99.75 21.98,-23.64 33.06,-31.77 38.61,-35.83 5.54,-4.07 5.54,-4.07 5.54,-4.07 0,0 0,0 0,0 0,0 0,0 0,-10.71 0,-10.72 0,-32.15 0.19,-42.86 0.18,-10.72 0.55,-10.72 0.74,-10.72 0.18,0 0.18,0 0.18,0 0,0 0,0 0,0 0,0 0,0 10.16,-0.37 10.16,-0.37 30.48,-1.11 56.9,1.85z"/>
  <path class="fil5" d="M5928.03 5802.62c-16.44,14.04 -45.26,39.17 -68.72,59.86 -23.46,20.69 -41.57,36.95 -49.33,50.43 -7.76,13.49 -5.17,24.2 1.85,41.57 7.02,17.37 18.47,41.38 34.54,58.01 16.07,16.63 36.76,25.86 53.76,27.34 17,1.48 30.29,-4.81 59.11,-27.53 28.82,-22.72 73.16,-61.89 95.7,-87.01 22.54,-25.13 23.28,-36.21 24.01,-48.96 0.74,-12.75 1.47,-27.16 -2.4,-38.43 -3.88,-11.27 -12.38,-19.4 -21.8,-26.6 -9.42,-7.21 -19.77,-13.49 -29.56,-18.48 -9.79,-4.99 -19.03,-8.68 -31.04,-10.16 -12.01,-1.48 -26.79,-0.74 -36.21,1.11 -9.42,1.85 -13.49,4.8 -29.93,18.84z"/>
  <path class="fil1" d="M5904.11 6116.38c0.32,10.92 0.32,10.92 0.32,10.92 0,0 0,0 0,0 0,0 0,0 0,0 0,0 0,0 -11.41,15.26 -11.41,15.26 -34.23,45.8 -54.95,74.24 -20.73,28.44 -39.37,54.8 -51.42,78.74 -12.05,23.94 -17.52,45.47 -15.26,70.7 2.25,25.23 12.21,54.15 31.49,76.32 19.28,22.17 47.88,37.6 73.59,44.35 25.71,6.75 48.52,4.82 79.05,-8.36 30.53,-13.17 68.77,-37.6 104.76,-72.3 35.99,-34.7 69.73,-79.7 89.66,-118.9 19.92,-39.21 26.03,-72.63 23.78,-100.42 -2.25,-27.8 -12.86,-49.97 -30.05,-67.8 -17.2,-17.84 -40.98,-31.33 -68.93,-39.85 -27.96,-8.52 -60.1,-12.06 -89.5,-14.14 -29.4,-2.09 -56.08,-2.73 -69.41,-3.05 -13.34,-0.32 -13.34,-0.32 -13.34,-0.32 0,0 0,0 0,0 0,0 0,0 0.32,10.93 0.32,10.92 0.96,32.77 1.28,43.7z"/>
  <path class="fil5" d="M5936.11 6235.12c-19.13,8.67 -45.13,22.41 -66.16,42.06 -21.03,19.66 -37.1,45.23 -44.7,65.52 -7.61,20.29 -6.77,35.3 2.64,49.88 9.41,14.59 27.38,28.75 45.66,38.68 18.28,9.93 36.88,15.64 58.97,8.77 22.09,-6.87 47.66,-26.32 67.96,-49.36 20.29,-23.04 35.3,-49.67 41.11,-75.25 5.81,-25.58 2.43,-50.09 -9.41,-65.95 -11.84,-15.85 -32.13,-23.04 -48.4,-24.84 -16.28,-1.8 -28.54,1.8 -47.66,10.46z"/>
  <path class="fil6" d="M3783.41 6791.4c38.54,50.68 90.27,117.29 136.19,170.32 45.92,53.03 86.01,92.48 121.58,123.84 35.57,31.36 66.61,54.65 82.13,66.29 15.52,11.64 15.52,11.64 15.52,11.64 0,0 0,0 0,0 0,0 0,0 -32.98,-14.23 -32.98,-14.23 -98.95,-42.68 -160.7,-81.49 -61.76,-38.8 -119.32,-87.95 -168.47,-137.22 -49.16,-49.27 -89.9,-98.67 -110.27,-123.36 -20.37,-24.7 -20.37,-24.7 -20.37,-24.7 0,0 0,0 0,0 0,0 0,0 8.03,-18.55 8.03,-18.54 24.09,-55.64 32.12,-74.18 8.03,-18.54 8.03,-18.54 8.03,-18.54 0,0 0,0 0,0 0,0 0,0 12.67,17.37 12.66,17.37 38,52.13 76.54,102.8z"/>
  <path class="fil6" d="M4519.76 7379.14c-32.19,-6.36 -77.57,-18.27 -114.02,-32.4 -36.45,-14.13 -63.98,-30.5 -77.74,-38.69 -13.76,-8.18 -13.76,-8.18 -13.76,-8.18 0,0 0,0 0,0 0,0 0,0 16.74,17.85 16.74,17.86 50.21,53.56 91.91,83.12 41.7,29.56 91.63,52.96 116.59,64.65 24.96,11.7 24.96,11.7 24.96,11.7 0,0 0,0 0,0 0,0 0,0 4.25,-15.01 4.25,-15.01 12.76,-45.02 17.01,-60.03 4.25,-15.01 4.25,-15.01 4.25,-15.01 0,0 0,0 0,0 0,0 0,0 -9.5,-0.41 -9.5,-0.41 -28.51,-1.24 -60.7,-7.6z"/>
  <path class="fil7" d="M5781.66 3932.95c43.35,1.97 95.89,3.27 139.89,-16.1 44,-19.37 79.48,-59.44 115.6,-98.18 36.11,-38.74 72.9,-76.19 97.86,-93.26 24.96,-17.07 38.1,-13.79 42.36,35.13 4.27,48.94 -0.33,143.52 3.29,199.02 3.6,55.5 15.43,71.91 50.24,105.4 34.81,33.5 92.61,84.08 120.86,116.59 28.23,32.51 26.92,46.95 18.38,56.81 -8.54,9.86 -24.3,15.11 -72.9,17.73 -48.61,2.63 -130.04,2.63 -175.03,7.23 -44.99,4.6 -53.54,13.79 -86.38,51.56 -32.83,37.77 -89.97,104.1 -126.1,133.32 -36.12,29.23 -51.23,21.35 -57.79,-29.88 -6.58,-51.22 -4.61,-145.81 -14.78,-205.89 -10.19,-60.09 -32.51,-85.71 -65.02,-119.21 -32.51,-33.49 -75.2,-74.86 -93.91,-104.1 -18.72,-29.22 -13.47,-46.3 6.24,-53.53 19.7,-7.23 53.84,-4.59 97.2,-2.62z"/>
  <rect class="fil8" x="4642.38" y="3823.2" width="852.16" height="162.46" rx="97.24" ry="81.23"/>
  <path class="fil7" d="M5655.26 3747.6c12.54,-3.58 27.63,-8.22 38.31,-17.94 10.69,-9.72 16.96,-24.52 23.55,-39.01 6.58,-14.49 13.49,-28.66 18.97,-35.91 5.48,-7.25 9.53,-7.56 15.42,5.96 5.89,13.53 13.61,40.91 19.94,56.38 6.33,15.46 11.26,19.01 24.38,25.23 13.11,6.22 34.41,15.11 45.56,21.67 11.15,6.57 12.15,10.81 10.66,14.43 -1.49,3.63 -5.48,6.63 -19.07,12.02 -13.59,5.39 -36.8,13.17 -49.17,18.77 -12.38,5.61 -13.93,9.04 -19.68,22.94 -5.75,13.89 -15.69,38.24 -23.19,50.02 -7.5,11.78 -12.56,10.98 -19.32,-2.99 -6.77,-13.96 -15.23,-41.1 -23.87,-57.24 -8.64,-16.15 -17.45,-21.31 -29.91,-27.75 -12.46,-6.44 -28.57,-14.15 -36.69,-20.69 -8.12,-6.54 -8.26,-11.9 -3.34,-15.84 4.92,-3.94 14.9,-6.45 27.44,-10.03z"/>
  <path class="fil9" d="M5423.03 5479.7c0,195.49 -159.03,354.55 -354.52,354.57 -195.64,0.03 -354.63,-158.94 -354.62,-354.57 0,-195.5 159.06,-354.56 354.57,-354.56 91.83,0 175.61,35.09 238.66,92.57 9.74,8.87 18.97,18.27 27.66,28.17 3.87,4.4 7.64,8.9 11.29,13.49 1.01,1.27 0.77,3.12 -0.53,4.1l-57.63 43.58c-1.25,0.95 -3.03,0.72 -4.01,-0.51 -0.91,-1.15 -2.23,-2.77 -4.05,-4.93 -8.75,-10.39 -18.26,-20.12 -28.44,-29.11 -48.39,-42.78 -111.82,-68.9 -181.23,-69.33 -153.55,-0.94 -277.97,122.46 -278.26,276.01 -0.29,152.73 123.88,277.07 276.54,277.07 151.07,0 274.15,-116.28 276.42,-266.73 0.03,-2.15 1,-4.17 2.67,-5.51 11.53,-9.32 57.54,-46.58 68.9,-55.77 1.11,-0.91 2.81,-0.25 3.01,1.18 2.35,16.43 3.57,33.23 3.57,50.29z"/>
  <path class="fil9" d="M5563.95 5283.3c-56.74,24.59 -114.41,60.62 -168.91,100.73 -23.25,17.1 -45.9,34.94 -67.68,52.96 -128.01,105.94 -225.09,217.79 -226.59,219.54 -8.72,10.11 -21.38,15.85 -34.59,15.85 -1.44,0 -2.89,-0.07 -4.34,-0.2 -14.74,-1.41 -27.89,-9.89 -35.26,-22.73 -46.64,-81.29 -113.46,-153.05 -114.12,-153.77 -17.23,-18.41 -16.28,-47.31 2.14,-64.55 18.42,-17.22 47.32,-16.27 64.54,2.14 2.42,2.59 48.69,52.29 93.65,118.25 46.02,-49.01 126.47,-129.97 221.61,-205.56 20.27,-16.12 41.21,-31.98 62.63,-47.24 54.81,-39.06 112.74,-74.16 170.61,-99.22 23.14,-10.04 50.03,0.59 60.06,23.73 10.02,23.14 -0.59,50.03 -23.74,60.06z"/>
 </g>
</svg>
